<svg width="16" height="16" viewBox="0 0 16 16" fill="none" xmlns="http://www.w3.org/2000/svg">
<g clip-path="url(#clip0_813_4526)">
<path d="M13.5 7.5C13.3618 7.50032 13.2238 7.51181 13.0875 7.53438L12.7237 6.58813C12.9783 6.52967 13.2387 6.5001 13.5 6.5C13.6326 6.5 13.7598 6.44732 13.8535 6.35355C13.9473 6.25979 14 6.13261 14 6C14 5.86739 13.9473 5.74021 13.8535 5.64645C13.7598 5.55268 13.6326 5.5 13.5 5.5H12.305L11.4669 3.32063C11.4306 3.22624 11.3665 3.14508 11.2832 3.08783C11.1998 3.03059 11.1011 2.99997 11 3H8.99998C8.86737 3 8.74019 3.05268 8.64642 3.14645C8.55266 3.24021 8.49998 3.36739 8.49998 3.5C8.49998 3.63261 8.55266 3.75979 8.64642 3.85355C8.74019 3.94732 8.86737 4 8.99998 4H10.6569L11.2337 5.5H9.49998C8.34373 5.5 7.40623 5.76937 6.78935 6.27875C6.64419 6.39585 6.46917 6.47003 6.28406 6.49289C6.09896 6.51575 5.91115 6.48639 5.74185 6.40812C5.0806 6.1075 1.16123 4.52562 1.12935 4.51687C1.00479 4.48026 0.870878 4.49354 0.755929 4.55389C0.640979 4.61424 0.554012 4.71693 0.513419 4.84025C0.472827 4.96357 0.481793 5.09784 0.538422 5.21467C0.59505 5.3315 0.6949 5.42172 0.816853 5.46625C0.816853 5.46625 4.2856 6.8375 4.97498 7.525C5.51054 8.05839 5.85784 8.75168 5.96435 9.5H4.94998C4.82607 8.89298 4.48118 8.35359 3.98218 7.9864C3.48318 7.61921 2.86562 7.45039 2.24922 7.51266C1.63281 7.57493 1.06149 7.86385 0.64601 8.32342C0.230528 8.78299 0.000488281 9.38046 0.000488281 10C0.000488281 10.6195 0.230528 11.217 0.64601 11.6766C1.06149 12.1361 1.63281 12.4251 2.24922 12.4873C2.86562 12.5496 3.48318 12.3808 3.98218 12.0136C4.48118 11.6464 4.82607 11.107 4.94998 10.5H8.20748C8.64114 10.501 9.0633 10.3605 9.40999 10.1C9.75668 9.83949 10.009 9.47306 10.1287 9.05625C10.2535 8.6129 10.4644 8.19852 10.7496 7.83687C11.0348 7.47523 11.3886 7.17342 11.7906 6.94875L12.1544 7.89437C11.6476 8.21874 11.2748 8.71499 11.1044 9.29205C10.934 9.86911 10.9775 10.4883 11.2268 11.0359C11.4761 11.5835 11.9145 12.0228 12.4616 12.2732C13.0087 12.5236 13.6278 12.5683 14.2052 12.3991C14.7826 12.2299 15.2796 11.8581 15.605 11.352C15.9304 10.8458 16.0623 10.2393 15.9766 9.6438C15.8908 9.04825 15.5932 8.5036 15.1383 8.1098C14.6834 7.71601 14.1017 7.4995 13.5 7.5ZM2.49998 10.5H3.91373C3.79578 10.8336 3.56369 11.1148 3.25849 11.2938C2.95328 11.4729 2.59461 11.5382 2.24586 11.4784C1.89711 11.4186 1.58075 11.2374 1.35268 10.9668C1.1246 10.6963 0.999514 10.3538 0.999514 10C0.999514 9.64616 1.1246 9.3037 1.35268 9.03317C1.58075 8.76264 1.89711 8.58144 2.24586 8.5216C2.59461 8.46177 2.95328 8.52715 3.25849 8.70618C3.56369 8.88522 3.79578 9.16639 3.91373 9.5H2.49998C2.36737 9.5 2.24019 9.55268 2.14642 9.64645C2.05266 9.74021 1.99998 9.86739 1.99998 10C1.99998 10.1326 2.05266 10.2598 2.14642 10.3536C2.24019 10.4473 2.36737 10.5 2.49998 10.5ZM13.5 11.5C13.1936 11.4996 12.8947 11.4054 12.6434 11.2301C12.3921 11.0547 12.2006 10.8066 12.0946 10.5192C11.9885 10.2317 11.973 9.9187 12.0502 9.62219C12.1274 9.32568 12.2935 9.05991 12.5262 8.86063L13.0331 10.1794C13.0807 10.3032 13.1755 10.4031 13.2967 10.457C13.4179 10.5109 13.5555 10.5144 13.6794 10.4669C13.8032 10.4193 13.903 10.3245 13.9569 10.2033C14.0109 10.0821 14.0144 9.94445 13.9669 9.82063L13.4594 8.5H13.5C13.8978 8.5 14.2793 8.65804 14.5606 8.93934C14.8419 9.22064 15 9.60218 15 10C15 10.3978 14.8419 10.7794 14.5606 11.0607C14.2793 11.342 13.8978 11.5 13.5 11.5Z" fill="#8E9797"/>
</g>
<defs>
<clipPath id="clip0_813_4526">
<rect width="16" height="16" fill="white"/>
</clipPath>
</defs>
</svg>
